Coordinates
version=1
nRows=16
nColumns=40
inDegrees=yes

Units are S.I. units (second, meters, Newtons, ...)
Angles are in degrees.

endheader
time	pelvis_tilt	pelvis_list	pelvis_rotation	pelvis_tx	pelvis_ty	pelvis_tz	hip_flexion_r	hip_adduction_r	hip_rotation_r	knee_angle_r	knee_angle_r_beta	ankle_angle_r	subtalar_angle_r	mtp_angle_r	hip_flexion_l	hip_adduction_l	hip_rotation_l	knee_angle_l	knee_angle_l_beta	ankle_angle_l	subtalar_angle_l	mtp_angle_l	lumbar_extension	lumbar_bending	lumbar_rotation	arm_flex_r	arm_add_r	arm_rot_r	elbow_flex_r	pro_sup_r	wrist_flex_r	wrist_dev_r	arm_flex_l	arm_add_l	arm_rot_l	elbow_flex_l	pro_sup_l	wrist_flex_l	wrist_dev_l
     10.10314286	     -4.97076262	     -4.61274948	     -5.68633786	      0.96322947	      0.90644623	      0.37646954	     21.54663265	     -6.00718059	      0.56375752	     60.61236033	     60.61236033	      9.19995442	    -11.83182242	      0.27523881	     22.64693250	     -2.04765115	     -1.59743372	     37.11559170	     37.11559170	     22.48550582	    -18.33889651	     11.00915839	    -10.83540555	      6.77070635	      2.68829052	     -0.13293643	    -11.56196914	    -13.99993508	     22.75389638	     47.19411800	      0.00000000	      0.00000000	     30.99484530	    -17.36198334	     12.15840565	     40.97229121	     46.48646737	      0.00000000	      0.00000000
     10.12628571	     -5.05537117	     -4.72616287	     -6.49847903	      0.96109111	      0.90837520	      0.37711400	     23.44110252	     -5.28253808	      1.45473397	     60.75581855	     60.75581855	      9.10610117	    -12.04706945	      0.47267267	     21.95788602	     -2.35914415	     -2.18946527	     36.22508790	     36.22508790	     22.40646814	    -18.40217896	     11.18138728	    -11.01923799	      6.92316500	      2.82132199	     -3.45259812	    -11.49712329	    -14.04467428	     22.06087409	     47.19138054	      0.00000000	      0.00000000	     32.69129452	    -17.88749424	     10.98738928	     42.92644666	     46.63807310	      0.00000000	      0.00000000
     10.14942857	     -5.24875943	     -4.83784303	     -7.33304918	      0.95878164	      0.91070227	      0.37810695	     25.19047329	     -4.62203344	      2.01103816	     59.84454817	     59.84454817	      8.97708455	    -12.03698598	     -0.40227492	     21.23041132	     -2.70809665	     -2.85071776	     35.03271320	     35.03271320	     22.09665438	    -18.39407846	     10.91064495	    -11.18205886	      7.10178038	      2.42072700	     -6.93513375	    -11.41045457	    -14.16574357	     23.88996112	     47.06245344	      0.00000000	      0.00000000	     33.20821552	    -18.70062704	      7.10384395	     46.81044126	     47.03373130	      0.00000000	      0.00000000
     10.17257143	     -5.44074800	     -4.86773185	     -8.23498059	      0.95632502	      0.91350485	      0.37948472	     26.69153682	     -4.05100603	      2.40801361	     57.94296413	     57.94296413	      9.13222754	    -11.71454378	     -1.12778996	     20.34910051	     -2.98873916	     -3.63142925	     33.54729961	     33.54729961	     21.76681772	    -18.34511896	     11.06370179	    -11.27967891	      7.12986088	      2.58010295	     -9.46379832	    -11.33381693	    -14.07368895	     23.32763824	     47.04919808	      0.00000000	      0.00000000	     34.86966013	    -19.36121820	      5.97618324	     48.56241310	     47.16437481	      0.00000000	      0.00000000
     10.19571429	     -5.79526578	     -4.94275133	     -9.14526428	      0.95381227	      0.91631378	      0.38115467	     27.82580234	     -3.49701761	      2.44312516	     54.58863123	     54.58863123	      7.84142322	    -11.90730644	     -6.29227460	     19.54341457	     -3.38478132	     -4.52860537	     31.86064888	     31.86064888	     20.88927330	    -18.25601670	      9.86997994	    -11.27570138	      7.24707468	      2.06357273	    -11.96725628	    -11.40855677	    -13.58767428	     25.11063219	     46.87360391	      0.00000000	      0.00000000	     35.05408666	    -20.21739074	      1.90797879	     52.64205025	     47.51940907	      0.00000000	      0.00000000
     10.21885714	     -6.16573356	     -4.97094687	    -10.07475561	      0.95129732	      0.91909722	      0.38313740	     28.65565568	     -3.02593207	      2.23311629	     50.40906574	     50.40906574	      7.19462278	    -11.21461835	     -9.56411044	     18.70998301	     -3.72421486	     -5.45020035	     30.11739715	     30.11739715	     20.20404566	    -18.07849887	      9.19516877	    -11.22838665	      7.29159413	      2.12348250	    -13.92768983	    -11.46918479	    -12.98173583	     25.61956350	     46.76136471	      0.00000000	      0.00000000	     36.00616539	    -20.98378717	      0.03453602	     55.50528319	     47.67194036	      0.00000000	      0.00000000
     10.24200000	     -6.52664360	     -4.92282151	    -10.98356954	      0.94882556	      0.92172129	      0.38531467	     29.15018045	     -2.69485432	      1.70546297	     45.59409099	     45.59409099	      7.35500218	     -9.12400664	    -10.20126161	     17.86785606	     -3.96642388	     -6.40250390	     28.37181442	     28.37181442	     19.70166858	    -17.81307293	      9.16090966	    -11.13905373	      7.22430924	      2.47169049	    -15.41066895	    -11.35123386	    -12.85562749	     25.63615891	     46.72954800	      0.00000000	      0.00000000	     37.50908816	    -21.54922689	     -0.88786286	     57.57351398	     47.77187013	      0.00000000	      0.00000000
     10.26514286	     -6.90756422	     -4.92494473	    -11.83751234	      0.94660256	      0.92387368	      0.38773997	     29.15977974	     -2.27170635	      0.95034946	     39.97142180	     39.97142180	      6.93372476	     -6.70113848	    -11.22594710	     17.05717428	     -4.27905710	     -7.38638522	     26.67026447	     26.67026447	     18.77432373	    -17.60500848	      7.73842801	    -11.04491129	      7.25599528	      2.26488276	    -16.67075535	    -11.39227098	    -12.62730769	     27.09704060	     46.61655201	      0.00000000	      0.00000000	     37.92815148	    -22.44673084	     -3.23230933	     61.17028681	     47.96733944	      0.00000000	      0.00000000
     10.28828571	     -7.27357573	     -4.88504551	    -12.61475931	      0.94462485	      0.92554183	      0.39039124	     28.79996915	     -1.78644416	      0.17563905	     34.00825306	     34.00825306	      6.57075312	     -3.73507864	    -10.30526715	     16.37873222	     -4.53407096	     -8.27512699	     25.29799278	     25.29799278	     18.55171339	    -17.15223188	      7.76622786	    -10.82610826	      7.23887277	      2.57136663	    -17.35729422	    -11.25706792	    -12.54036655	     27.09772674	     46.60010512	      0.00000000	      0.00000000	     39.40706255	    -23.02458805	     -3.74330996	     62.50841852	     48.02947520	      0.00000000	      0.00000000
     10.31142857	     -7.43522166	     -4.62335935	    -13.30596723	      0.94322176	      0.92654062	      0.39296931	     28.22824257	     -1.75645032	     -1.22358369	     28.50038831	     28.50038831	      6.91314708	      1.33266850	     -6.81986600	     15.49595378	     -4.47605454	     -9.24391364	     23.86161334	     23.86161334	     17.57065284	    -17.01289831	      5.70051227	    -10.82665332	      6.95305860	      2.41042270	    -18.00573737	    -11.23925316	    -12.12587125	     28.66348913	     46.47442981	      0.00000000	      0.00000000	     39.71236232	    -23.70778103	     -6.08031372	     66.46957460	     48.22068473	      0.00000000	      0.00000000
     10.33457143	     -7.59320214	     -4.41939083	    -13.83589080	      0.94220328	      0.92689317	      0.39586168	     27.37986656	     -1.37525385	     -2.00357737	     22.99769603	     22.99769603	      5.95502986	      4.64300537	     -4.90531171	     14.86891294	     -4.48002756	     -9.95229092	     23.01393677	     23.01393677	     17.59253347	    -16.63197177	      5.51920685	    -10.62027764	      6.76714462	      2.70687131	    -18.16691671	    -10.99704550	    -11.98487940	     28.74818267	     46.45570137	      0.00000000	      0.00000000	     41.11018741	    -24.04021754	     -6.40328395	     67.68636575	     48.26952662	      0.00000000	      0.00000000
     10.35771429	     -7.59061832	     -4.02060129	    -14.29854448	      0.94177524	      0.92663310	      0.39860382	     26.98259755	     -1.49436224	     -3.57012927	     19.39312793	     19.39312793	      7.14204726	      9.73964502	      2.80150351	     14.12069841	     -4.22654890	    -10.75772360	     22.16324917	     22.16324917	     16.86716612	    -16.52468058	      3.30370320	    -10.59154191	      6.35021135	      2.47819377	    -18.18077581	    -10.97070462	    -11.35595690	     29.96681094	     46.33916008	      0.00000000	      0.00000000	     41.43122577	    -24.60078276	     -8.20719196	     71.03642447	     48.41195563	      0.00000000	      0.00000000
     10.38085714	     -7.57599971	     -3.65567916	    -14.57588088	      0.94182741	      0.92596339	      0.40158750	     26.38185737	     -1.33640471	     -4.04472179	     15.95688105	     15.95688105	      6.06548969	     12.07966017	      4.51033568	     13.56536238	     -3.99874997	    -11.28320061	     21.78565347	     21.78565347	     17.08511869	    -16.20464021	      3.04200948	    -10.39651585	      6.01900069	      2.75019981	    -17.97238776	    -10.67941061	    -11.17720718	     30.05587248	     46.32173359	      0.00000000	      0.00000000	     42.66043722	    -24.67849674	     -8.40063904	     72.06681520	     48.44690644	      0.00000000	      0.00000000
     10.40400000	     -7.49729594	     -3.30252523	    -14.78916559	      0.94235736	      0.92507925	      0.40452580	     26.24512698	     -1.38255837	     -4.86405078	     14.30859418	     14.30859418	      6.53710945	     14.61809465	      9.49426267	     12.95731026	     -3.75673892	    -11.76647390	     21.44869205	     21.44869205	     16.91446533	    -16.02584788	      1.60462130	    -10.28705042	      5.74625733	      2.57048136	    -17.47023969	    -10.64418160	    -10.47722659	     30.48212441	     46.24559997	      0.00000000	      0.00000000	     42.95361088	    -24.92727586	     -9.78623140	     74.59677846	     48.54599117	      0.00000000	      0.00000000
     10.42714286	     -7.40645200	     -3.00592687	    -14.88169261	      0.94341772	      0.92410377	      0.40768088	     25.98962290	     -1.30942024	     -4.98550086	     13.07408078	     13.07408078	      5.77807456	     15.64547982	     10.01556187	     12.41135849	     -3.55457642	    -12.03190422	     21.34634084	     21.34634084	     17.24345653	    -15.86285151	      1.38463386	    -10.10515181	      5.57718659	      2.82714187	    -17.04894972	    -10.49325387	    -10.30170682	     30.54151309	     46.23230050	      0.00000000	      0.00000000	     43.79649290	    -24.81390689	     -9.97916361	     75.49885723	     48.57384691	      0.00000000	      0.00000000
     10.45028571	     -7.39270868	     -2.76759413	    -14.85852881	      0.94489877	      0.92292587	      0.41088677	     26.08509639	     -1.25290154	     -4.84648569	     12.98398106	     12.98398106	      5.39328869	     15.84754568	     10.10704867	     11.99355664	     -3.39857511	    -12.00100888	     21.37822487	     21.37822487	     17.65118171	    -15.88735787	      1.20746691	     -9.75052486	      5.56550855	      2.91288618	    -16.63709493	    -10.42259578	    -10.26653364	     30.67989854	     46.22705292	      0.00000000	      0.00000000	     44.26544231	    -24.81446623	    -10.04695893	     75.81073859	     48.58629754	      0.00000000	      0.00000000
